<svg id="Layer_1" data-name="Layer 1" xmlns="http://www.w3.org/2000/svg" viewBox="0 0 225.02 225.02">
  <defs>
    <style>
      .cls-1 {
        fill: #6eccda;
        stroke-width: 5px;
      }

      .cls-1, .cls-2 {
        stroke: #231f20;
        stroke-miterlimit: 10;
      }
    </style>
  </defs>
  <path class="cls-1" d="M218.89,112.48a106.42,106.42,0,1,1-43.57-85.73A106.33,106.33,0,0,1,218.89,112.48Z"/>
  <path class="cls-2" d="M140.38,76a5.12,5.12,0,0,1,0-7.24,20.74,20.74,0,1,1,14.74,35.34H72.66a5.12,5.12,0,0,1,0-10.24h82.42a10.51,10.51,0,0,0,0-21,10.4,10.4,0,0,0-7.46,3.12,5.12,5.12,0,0,1-7.24,0Zm17,43.43h-31a5.12,5.12,0,1,0,0,10.24h31A10.51,10.51,0,1,1,150,147.58a5.12,5.12,0,1,0-7.24,7.24,20.74,20.74,0,1,0,14.66-35.42ZM52.18,129.64H85.71a5.12,5.12,0,1,0,0-10.24H52.18a5.12,5.12,0,0,0,0,10.24Zm0-46.84h59.9A17.91,17.91,0,1,0,99.25,52.34a5.12,5.12,0,0,0,7.33,7.16,7.59,7.59,0,0,1,5.5-2.28,7.67,7.67,0,1,1,0,15.34H52.18a5.12,5.12,0,0,0,0,10.24Zm33.53,59.38H52.18a5.12,5.12,0,0,0,0,10.24H85.71a7.69,7.69,0,0,1,0,15.38,7.61,7.61,0,0,1-5.5-2.32,5.12,5.12,0,0,0-7.32,7.15A17.75,17.75,0,0,0,85.71,178a17.93,17.93,0,0,0,0-35.86ZM59.09,159.1a5.12,5.12,0,1,0,5.12,5.12A5.12,5.12,0,0,0,59.09,159.1Zm79.48,8.7a5.12,5.12,0,1,0,5.12,5.12A5.12,5.12,0,0,0,138.57,167.8Zm-32.64-48.38a5.12,5.12,0,1,0,5.12,5.12A5.12,5.12,0,0,0,105.93,119.42Zm16.13,24.06a5.12,5.12,0,1,0,5.12,5.12A5.12,5.12,0,0,0,122.06,143.48ZM173,57.22a5.12,5.12,0,1,0-5.12-5.12A5.12,5.12,0,0,0,173,57.22ZM52.18,104.06a5.12,5.12,0,1,0-5.12-5.12A5.12,5.12,0,0,0,52.18,104.06ZM83.41,63.62a5.12,5.12,0,1,0-5.12-5.12A5.12,5.12,0,0,0,83.41,63.62Z"/>
</svg>
