<svg id="Layer_1" enable-background="new 0 0 512 512" height="512" viewBox="0 0 512 512" width="512" xmlns="http://www.w3.org/2000/svg" xmlns:xlink="http://www.w3.org/1999/xlink"><linearGradient id="SVGID_1_" gradientUnits="userSpaceOnUse" x1="0" x2="512" y1="256" y2="256"><stop offset="0" stop-color="#00f2fe"/><stop offset=".0208" stop-color="#03effe"/><stop offset=".2931" stop-color="#24d2fe"/><stop offset=".5538" stop-color="#3cbdfe"/><stop offset=".7956" stop-color="#4ab0fe"/><stop offset="1" stop-color="#4facfe"/></linearGradient><path d="m364.571 113.235c-7.852-7.77-7.919-20.433-.15-28.284 15.332-15.495 35.781-24.029 57.579-24.029 44.664 0 81 36.337 81 81 0 44.717-36.336 81.097-81 81.097h-322c-11.046 0-20-8.954-20-20s8.954-20 20-20h322c22.607 0 41-18.436 41-41.097 0-22.607-18.393-41-41-41-11.034 0-21.384 4.32-29.146 12.164-7.768 7.85-20.431 7.92-28.283.149zm66.429 169.687h-121c-11.046 0-20 8.954-20 20s8.954 20 20 20h121c22.607 0 41 18.436 41 41.097 0 22.607-18.393 41-41 41-10.952 0-21.248-4.265-28.991-12.008-7.811-7.812-20.474-7.811-28.284-.001-7.811 7.811-7.811 20.474-.001 28.284 15.298 15.299 35.639 23.725 57.276 23.725 44.664 0 81-36.336 81-81 0-44.717-36.336-81.097-81-81.097zm-411 40h131c11.046 0 20-8.954 20-20s-8.954-20-20-20h-131c-11.046 0-20 8.954-20 20s8.954 20 20 20zm0-183h234c38.598 0 70-31.437 70-70.078 0-38.512-31.402-69.844-70-69.844-19.117 0-36.908 7.441-50.096 20.952-7.715 7.904-7.562 20.566.343 28.282 7.904 7.714 20.566 7.562 28.282-.343 5.596-5.733 13.221-8.891 21.471-8.891 16.542 0 30 13.388 30 29.844 0 16.585-13.458 30.078-30 30.078h-234c-11.046 0-20 8.954-20 20s8.954 20 20 20zm131 232h-131c-11.046 0-20 8.954-20 20s8.954 20 20 20h131c16.542 0 30 13.493 30 30.078 0 16.542-13.458 30-30 30-8.151 0-15.776-3.213-21.471-9.048-7.716-7.906-20.378-8.058-28.282-.343-7.905 7.716-8.058 20.378-.343 28.282 13.286 13.613 31.077 21.109 50.096 21.109 38.598 0 70-31.401 70-70 0-38.642-31.402-70.078-70-70.078zm-104 66.078c-11.046 0-20 8.954-20 20s8.954 20 20 20 20-8.954 20-20-8.954-20-20-20zm310.5 34c-11.046 0-20 8.954-20 20s8.954 20 20 20 20-8.954 20-20-8.954-20-20-20zm-127.5-189c-11.046 0-20 8.954-20 20s8.954 20 20 20 20-8.954 20-20-8.954-20-20-20zm63 94c-11.046 0-20 8.954-20 20s8.954 20 20 20 20-8.954 20-20-8.954-20-20-20zm199-337c11.046 0 20-8.954 20-20s-8.954-20-20-20-20 8.954-20 20 8.954 20 20 20zm-472 183c11.046 0 20-8.954 20-20s-8.954-20-20-20-20 8.954-20 20 8.954 20 20 20zm122-158c11.046 0 20-8.954 20-20s-8.954-20-20-20-20 8.954-20 20 8.954 20 20 20z" fill="url(#SVGID_1_)"/></svg>