<svg xmlns="http://www.w3.org/2000/svg" xmlns:xlink="http://www.w3.org/1999/xlink" width="564.455" height="160.609" viewBox="0 0 423.341 120.457"><defs><symbol overflow="visible" id="a"><path d="M1.328-.828c.531-.578.828-.828 1.188-1.14 0 0 .609-.532.968-.891.954-.922 1.172-1.407 1.172-1.454 0-.093-.093-.093-.11-.093-.077 0-.093.015-.155.11-.297.484-.5.64-.735.64-.25 0-.36-.156-.515-.328-.188-.22-.36-.422-.688-.422-.75 0-1.203.922-1.203 1.14 0 .047.031.11.11.11.093 0 .109-.047.14-.11.188-.468.766-.468.844-.468.203 0 .39.062.625.14.406.156.515.156.765.156-.359.422-1.187 1.141-1.375 1.297l-.906.844C.781-.625.422-.063.422.016c0 .093.11.093.125.093C.625.11.64.094.703-.016c.235-.359.531-.625.86-.625.218 0 .328.094.578.375.156.22.343.375.625.375 1 0 1.578-1.265 1.578-1.53 0-.048-.047-.11-.125-.11-.094 0-.11.062-.14.14-.235.641-.876.829-1.204.829-.188 0-.375-.063-.578-.125-.344-.125-.5-.172-.703-.172-.016 0-.172 0-.266.03zm0 0"/></symbol><symbol overflow="visible" id="d"><path d="M3.656-3.984h.86c.203 0 .296 0 .296-.204 0-.109-.093-.109-.265-.109h-.828l.203-1.14c.047-.204.187-.907.25-1.032.078-.187.25-.343.469-.343.03 0 .296 0 .484.187a.557.557 0 00-.547.531c0 .235.188.36.375.36.266 0 .547-.235.547-.61 0-.453-.453-.687-.86-.687-.343 0-.968.187-1.265 1.172-.063.203-.094.312-.328 1.562h-.688c-.203 0-.312 0-.312.188 0 .125.094.125.281.125h.656L2.25-.047c-.188.969-.36 1.875-.875 1.875-.047 0-.281 0-.484-.187.468-.032.562-.391.562-.532 0-.234-.187-.359-.375-.359-.266 0-.547.234-.547.61 0 .437.438.687.844.687.547 0 .953-.594 1.125-.969.328-.625.547-1.828.563-1.906zm0 0"/></symbol><symbol overflow="visible" id="o"><path d="M.453 1.219c-.078.343-.11.406-.547.406-.11 0-.218 0-.218.188 0 .078.046.125.124.125.266 0 .563-.032.829-.032.343 0 .671.032 1 .032.046 0 .171 0 .171-.204 0-.109-.093-.109-.234-.109-.5 0-.5-.063-.5-.156 0-.125.422-1.75.484-2 .125.297.407.64.922.64 1.157 0 2.407-1.453 2.407-2.921 0-.938-.579-1.594-1.329-1.594-.5 0-.984.36-1.312.75-.094-.547-.531-.75-.89-.75-.47 0-.657.39-.735.562-.188.344-.313.938-.313.969 0 .11.094.11.11.11.11 0 .11-.016.172-.235.172-.703.375-1.188.734-1.188.172 0 .313.079.313.454 0 .234-.032.343-.079.515zm1.75-4.328c.063-.266.344-.547.516-.704.36-.296.64-.374.812-.374.39 0 .64.343.64.937 0 .594-.327 1.734-.515 2.11-.344.702-.812 1.03-1.187 1.03-.656 0-.781-.828-.781-.89 0-.016 0-.031.03-.156zm0 0"/></symbol><symbol overflow="visible" id="b"><path d="M3.594-2.219c0-.765-.094-1.328-.406-1.812-.22-.313-.657-.594-1.204-.594C.36-4.625.36-2.719.36-2.219c0 .5 0 2.36 1.625 2.36 1.61 0 1.61-1.86 1.61-2.36zM1.984-.063c-.328 0-.75-.187-.89-.75C1-1.219 1-1.796 1-2.313c0-.515 0-1.046.094-1.421.156-.547.593-.704.89-.704.375 0 .735.235.86.641.11.375.125.875.125 1.485 0 .515 0 1.03-.094 1.468-.14.64-.61.781-.89.781zm0 0"/></symbol><symbol overflow="visible" id="c"><path d="M2.328-4.438c0-.187 0-.187-.203-.187-.453.438-1.078.438-1.36.438v.25c.157 0 .626 0 1-.188v3.547c0 .234 0 .328-.687.328H.812V0c.125 0 .985-.031 1.235-.031.219 0 1.094.031 1.25.031v-.25H3.03c-.703 0-.703-.094-.703-.328zm0 0"/></symbol><symbol overflow="visible" id="h"><path d="M3.219-1.578h2.14c.094 0 .25 0 .25-.156 0-.188-.156-.188-.25-.188H3.22v-2.14c0-.079 0-.25-.156-.25-.172 0-.172.156-.172.25v2.14H.75c-.094 0-.266 0-.266.172s.157.172.266.172h2.14v2.14c0 .094 0 .266.157.266.172 0 .172-.172.172-.265zm0 0"/></symbol><symbol overflow="visible" id="e"><path d="M3.297 2.39c0-.03 0-.046-.172-.218C1.891.922 1.562-.968 1.562-2.5c0-1.734.375-3.469 1.61-4.703.125-.125.125-.14.125-.172 0-.078-.031-.11-.094-.11-.11 0-1 .688-1.594 1.954C1.11-4.438.984-3.328.984-2.5c0 .781.11 1.984.657 3.125C2.25 1.844 3.094 2.5 3.203 2.5c.063 0 .094-.031.094-.11zm0 0"/></symbol><symbol overflow="visible" id="f"><path d="M2.875-2.5c0-.766-.11-1.969-.656-3.11C1.625-6.827.766-7.483.672-7.483a.107.107 0 00-.11.109c0 .031 0 .047.188.234.984.985 1.547 2.563 1.547 4.641 0 1.719-.36 3.469-1.594 4.719-.14.125-.14.14-.14.172 0 .062.046.109.109.109.094 0 1-.688 1.578-1.953.516-1.094.625-2.203.625-3.047zm0 0"/></symbol><symbol overflow="visible" id="g"><path d="M2.266-4.36a.276.276 0 00-.282-.265c-.187 0-.39.188-.39.39 0 .11.078.266.281.266.188 0 .39-.203.39-.39zM.844-.811C.813-.72.78-.641.78-.516c0 .329.266.579.656.579.688 0 1-.954 1-1.063 0-.094-.093-.094-.109-.094-.094 0-.11.047-.14.125-.157.563-.454.844-.735.844-.14 0-.172-.094-.172-.25s.047-.281.11-.438c.078-.187.156-.375.218-.562.063-.172.329-.797.344-.89A.5.5 0 002-2.486c0-.328-.281-.593-.656-.593C.64-3.078.328-2.125.328-2c0 .078.094.078.125.078.094 0 .094-.031.125-.11.172-.593.485-.843.735-.843.109 0 .171.047.171.234 0 .172-.03.266-.203.704zm0 0"/></symbol><symbol overflow="visible" id="k"><path d="M2.188-4.625c0-.016.015-.11.015-.11 0-.046-.015-.109-.11-.109-.14 0-.718.063-.89.078-.047 0-.156.016-.156.157 0 .093.11.093.187.093.329 0 .329.063.329.11s-.016.093-.016.156L.563-.312c-.047.124-.047.14-.047.156 0 .11.093.218.25.218.187 0 .265-.124.312-.28.016-.032.313-1.266.344-1.36.5.047.89.219.89.578 0 .031 0 .063-.015.14-.031.094-.031.141-.031.22 0 .484.406.703.75.703.671 0 .875-1.047.875-1.063 0-.094-.079-.094-.11-.094-.094 0-.11.047-.14.172-.079.297-.266.797-.61.797-.187 0-.25-.172-.25-.36 0-.124 0-.14.047-.312a.724.724 0 00.031-.219c0-.625-.828-.718-1.125-.734.204-.125.454-.36.579-.469.359-.328.703-.656 1.093-.656.078 0 .172.016.235.094a.396.396 0 00-.36.39c0 .141.11.25.266.25.203 0 .406-.156.406-.437a.5.5 0 00-.531-.5c-.406 0-.766.297-1.125.625-.297.265-.516.484-.813.61zm0 0"/></symbol><symbol overflow="visible" id="i"><path d="M2.36-.781a.784.784 0 00-.782-.781.78.78 0 00-.766.78.774.774 0 101.547 0zm0 0"/></symbol><symbol overflow="visible" id="j"><path d="M5.188-1.578c.109 0 .28 0 .28-.156 0-.188-.171-.188-.28-.188H1.03c-.11 0-.281 0-.281.172s.156.172.281.172zm0 0"/></symbol><symbol overflow="visible" id="l"><path d="M8.219-3.906c.172 0 .406 0 .406-.235 0-.25-.234-.25-.406-.25H1.063c-.172 0-.391 0-.391.25 0 .235.219.235.406.235zm0 2.312c.172 0 .406 0 .406-.234s-.234-.234-.406-.234h-7.14c-.188 0-.407 0-.407.234s.219.234.39.234zm0 0"/></symbol><symbol overflow="visible" id="m"><path d="M4-3.61c.063-.312.344-1.406 1.172-1.406.062 0 .344 0 .594.157a.678.678 0 00-.563.64c0 .188.125.422.453.422.266 0 .64-.219.64-.703 0-.61-.702-.781-1.109-.781-.687 0-1.109.625-1.25.906-.296-.781-.953-.906-1.296-.906-1.235 0-1.922 1.547-1.922 1.843 0 .11.125.11.14.11.094 0 .125-.016.157-.125.406-1.266 1.203-1.563 1.609-1.563.219 0 .64.11.64.797 0 .375-.203 1.172-.64 2.844-.203.734-.61 1.25-1.14 1.25-.079 0-.344 0-.594-.156.296-.063.562-.313.562-.656 0-.313-.266-.407-.453-.407-.36 0-.656.297-.656.688 0 .547.594.781 1.125.781.797 0 1.218-.828 1.25-.906.156.453.578.906 1.297.906 1.234 0 1.906-1.531 1.906-1.828 0-.125-.094-.125-.14-.125-.11 0-.126.047-.157.125C5.235-.422 4.422-.125 4.047-.125c-.469 0-.672-.39-.672-.797 0-.265.078-.531.203-1.047zm0 0"/></symbol><symbol overflow="visible" id="n"><path d="M7.203-3.328c0-.219-.062-.328-.14-.328-.047 0-.141.078-.141.265-.047.954-.703 1.5-1.406 1.5-.625 0-1.094-.421-1.594-.843-.5-.47-1.016-.922-1.703-.922-1.078 0-1.672 1.094-1.672 2 0 .328.125.328.14.328.11 0 .141-.203.141-.234.047-1.094.781-1.532 1.39-1.532.626 0 1.11.422 1.595.844.515.469 1.03.922 1.703.922 1.093 0 1.687-1.094 1.687-2zm0 0"/></symbol><clipPath id="p"><path d="M340 23h83.34v92H340zm0 0"/></clipPath><clipPath id="q"><path d="M340 32h83.34v66H340zm0 0"/></clipPath></defs><path d="M47.035 17.2c0-6.052-4.906-10.958-10.96-10.958-6.052 0-10.958 4.906-10.958 10.957 0 6.055 4.906 10.961 10.957 10.961 6.055 0 10.961-4.906 10.961-10.96zm0 0" fill="#e5e5e5" stroke-width="1.196" stroke="red" stroke-miterlimit="10"/><use xlink:href="#a" x="31.523" y="18.599"/><use xlink:href="#b" x="36.157" y="20.093"/><path d="M126.84 17.2c0-6.052-4.906-10.958-10.957-10.958-6.055 0-10.961 4.906-10.961 10.957 0 6.055 4.906 10.961 10.96 10.961 6.052 0 10.958-4.906 10.958-10.96zm0 0" fill="#e5e5e5"/><use xlink:href="#a" x="111.33" y="18.599"/><use xlink:href="#c" x="115.963" y="20.093"/><path d="M50.621 17.2h49.758" fill="none" stroke-width="1.196" stroke="#000" stroke-miterlimit="10"/><path d="M98.469 14.652c.156.953 1.91 2.391 2.39 2.547-.48.16-2.234 1.598-2.39 2.551" fill="none" stroke-width=".956" stroke-linecap="round" stroke-linejoin="round" stroke="#000" stroke-miterlimit="10"/><use xlink:href="#d" x="62.879" y="10.792"/><use xlink:href="#c" x="67.756" y="12.287"/><use xlink:href="#e" x="72.226" y="10.792"/><use xlink:href="#a" x="76.1" y="10.792"/><use xlink:href="#b" x="80.733" y="12.287"/><use xlink:href="#f" x="85.202" y="10.792"/><path d="M220.82 17.2c0-6.052-4.906-10.958-10.957-10.958-6.054 0-10.96 4.906-10.96 10.957 0 6.055 4.906 10.961 10.96 10.961 6.051 0 10.957-4.906 10.957-10.96zm0 0" fill="#e5e5e5"/><use xlink:href="#a" x="205.885" y="18.599"/><use xlink:href="#g" x="210.518" y="20.093"/><path d="M300.629 17.2c0-6.052-4.906-10.958-10.957-10.958-6.055 0-10.961 4.906-10.961 10.957 0 6.055 4.906 10.961 10.96 10.961 6.052 0 10.958-4.906 10.958-10.96zm0 0" fill="#e5e5e5"/><use xlink:href="#a" x="280.648" y="18.184"/><use xlink:href="#g" x="285.281" y="19.678"/><use xlink:href="#h" x="288.1" y="19.678"/><use xlink:href="#c" x="294.216" y="19.678"/><path d="M224.406 17.2h49.762" fill="none" stroke-width="1.196" stroke="#000" stroke-miterlimit="10"/><path d="M272.254 14.652c.16.953 1.914 2.391 2.39 2.547-.476.16-2.23 1.598-2.39 2.551" fill="none" stroke-width=".956" stroke-linecap="round" stroke-linejoin="round" stroke="#000" stroke-miterlimit="10"/><use xlink:href="#d" x="232.773" y="10.792"/><use xlink:href="#g" x="237.651" y="12.287"/><use xlink:href="#h" x="240.469" y="12.287"/><use xlink:href="#c" x="246.585" y="12.287"/><use xlink:href="#e" x="251.055" y="10.792"/><use xlink:href="#a" x="254.929" y="10.792"/><use xlink:href="#g" x="259.562" y="12.287"/><use xlink:href="#f" x="262.879" y="10.792"/><path d="M148.887 17.2h45.472" fill="none" stroke-width="1.196" stroke="#000" stroke-miterlimit="10"/><path d="M192.45 14.652c.16.953 1.91 2.391 2.39 2.547-.48.16-2.23 1.598-2.39 2.551" fill="none" stroke-width=".956" stroke-linecap="round" stroke-linejoin="round" stroke="#000" stroke-miterlimit="10"/><use xlink:href="#i" x="131.138" y="17.976"/><use xlink:href="#i" x="136.233" y="17.976"/><use xlink:href="#i" x="141.318" y="17.976"/><use xlink:href="#d" x="145.825" y="10.792"/><use xlink:href="#g" x="150.703" y="12.287"/><use xlink:href="#e" x="154.019" y="10.792"/><use xlink:href="#a" x="157.894" y="10.792"/><use xlink:href="#g" x="162.527" y="12.287"/><use xlink:href="#j" x="165.346" y="12.287"/><use xlink:href="#c" x="171.572" y="12.287"/><use xlink:href="#f" x="176.042" y="10.792"/><path d="M394.61 17.2c0-6.052-4.907-10.958-10.958-10.958-6.054 0-10.96 4.906-10.96 10.957 0 6.055 4.906 10.961 10.96 10.961 6.051 0 10.957-4.906 10.957-10.96zm0 0" fill="#e5e5e5" stroke-width="1.196" stroke="#00b200" stroke-miterlimit="10"/><use xlink:href="#a" x="378.878" y="18.599"/><use xlink:href="#k" x="383.512" y="20.093"/><path d="M322.676 17.2h45.472" fill="none" stroke-width="1.196" stroke="#000" stroke-miterlimit="10"/><path d="M366.234 14.652c.16.953 1.914 2.391 2.395 2.547-.48.16-2.234 1.598-2.395 2.551" fill="none" stroke-width=".956" stroke-linecap="round" stroke-linejoin="round" stroke="#000" stroke-miterlimit="10"/><use xlink:href="#i" x="304.924" y="17.976"/><use xlink:href="#i" x="310.019" y="17.976"/><use xlink:href="#i" x="315.104" y="17.976"/><use xlink:href="#d" x="318.026" y="10.792"/><use xlink:href="#k" x="322.903" y="12.287"/><use xlink:href="#e" x="327.805" y="10.792"/><use xlink:href="#a" x="331.679" y="10.792"/><use xlink:href="#k" x="336.313" y="12.287"/><use xlink:href="#j" x="340.716" y="12.287"/><use xlink:href="#c" x="346.943" y="12.287"/><use xlink:href="#f" x="351.412" y="10.792"/><use xlink:href="#l" x="399.904" y="19.775"/><use xlink:href="#m" x="412.524" y="19.775"/><path d="M71.75 68.84c0-18.785-15.227-34.016-34.016-34.016-18.785 0-34.015 15.23-34.015 34.016 0 18.789 15.23 34.02 34.015 34.02 18.79 0 34.016-15.231 34.016-34.02zm0 0" fill="none" stroke-width=".797" stroke="#000" stroke-dasharray="2.29143,1.99255" stroke-miterlimit="10"/><path d="M9.387 80.18h1.453l1.453-.008 1.457-.012 1.453-.031 1.453-.063 1.453-.12 1.453-.231 1.454-.406 1.453-.684 1.453-1.082 1.453-1.598 1.453-2.215 1.453-2.87 1.453-3.465 1.453-3.848 1.454-3.895 1.453-3.515 1.453-2.672L37 52.012l1.453-.004 1.453 1.437 1.457 2.66 1.453 3.508 1.454 3.899 1.453 3.847 1.453 3.47 1.453 2.874 1.453 2.223 1.453 1.605 1.453 1.082 1.453.688 1.454.41 1.453.234 1.453.121 1.453.063 1.453.027 1.453.016 2.906.008" fill="none" stroke-width="1.196" stroke="#009" stroke-miterlimit="10"/><path d="M9.387 80.18h55.988" fill="none" stroke-width=".797" stroke="#000" stroke-miterlimit="10"/><path d="M63.82 78.11c.13.777 1.555 1.94 1.942 2.07-.387.129-1.813 1.297-1.942 2.074" fill="none" stroke-width=".638" stroke-linecap="round" stroke-linejoin="round" stroke="#000" stroke-miterlimit="10"/><path d="M37.734 94.352V45.453" fill="none" stroke-width=".797" stroke="#000" stroke-miterlimit="10"/><path d="M35.664 47.008c.777-.13 1.941-1.555 2.07-1.942.13.387 1.297 1.813 2.075 1.942" fill="none" stroke-width=".638" stroke-linecap="round" stroke-linejoin="round" stroke="#000" stroke-miterlimit="10"/><use xlink:href="#a" x="11.715" y="114.646"/><use xlink:href="#b" x="16.348" y="116.14"/><use xlink:href="#n" x="23.585" y="114.646"/><use xlink:href="#o" x="34.101" y="114.646"/><use xlink:href="#b" x="39.114" y="116.14"/><use xlink:href="#e" x="43.583" y="114.646"/><use xlink:href="#a" x="47.457" y="114.646"/><use xlink:href="#b" x="52.09" y="116.14"/><use xlink:href="#f" x="56.56" y="114.646"/><path d="M245.54 68.84c0-18.785-15.231-34.016-34.02-34.016-18.786 0-34.016 15.23-34.016 34.016 0 18.789 15.23 34.02 34.016 34.02 18.789 0 34.02-15.231 34.02-34.02zm0 0" fill="none" stroke-width=".797" stroke="#000" stroke-dasharray="2.29143,1.99255" stroke-miterlimit="10"/><path d="M183.176 80.074l.82-.176.82-.41.82-.836.825-1.52.82-2.456.82-3.465.825-4.262.82-4.422.82-3.648.82-1.969.825.27.82 2.347.82 3.754.82 4.184.825 3.734.82 2.727.82 1.586.825.578.82-.207.82-.758.82-1.145.825-1.445.82-1.683.82-1.887.821-2.05.824-2.173.82-2.219.82-2.207.825-2.109.82-1.93.82-1.664.821-1.328.824-.926.82-.472.82-.004.825.469.82.91.82 1.316.821 1.66.824 1.926.82 2.106.82 2.207.821 2.21.824 2.145.82 1.984.821 1.723.824 1.332.82.766.82.023.821-.86.824-1.69 1.641-4.493.82-1.57.825-.328.82 1.117.82 2.34.824 3.008.82 3.03.821 2.563.82 1.883.825 1.211.82.692.82.351.824.16.82.067.821.023.82.016h.825" fill="none" stroke-width="1.196" stroke="#009" stroke-miterlimit="10"/><path d="M183.176 80.18h55.984" fill="none" stroke-width=".797" stroke="#000" stroke-miterlimit="10"/><path d="M237.605 78.11c.13.777 1.555 1.94 1.946 2.07-.39.129-1.817 1.297-1.946 2.074" fill="none" stroke-width=".638" stroke-linecap="round" stroke-linejoin="round" stroke="#000" stroke-miterlimit="10"/><path d="M211.52 94.352V45.453" fill="none" stroke-width=".797" stroke="#000" stroke-miterlimit="10"/><path d="M209.45 47.008c.777-.13 1.94-1.555 2.07-1.942.132.387 1.296 1.813 2.074 1.942" fill="none" stroke-width=".638" stroke-linecap="round" stroke-linejoin="round" stroke="#000" stroke-miterlimit="10"/><use xlink:href="#a" x="187.23" y="114.646"/><use xlink:href="#g" x="191.863" y="116.14"/><use xlink:href="#n" x="197.947" y="114.646"/><use xlink:href="#o" x="208.463" y="114.646"/><use xlink:href="#g" x="213.475" y="116.14"/><use xlink:href="#e" x="216.792" y="114.646"/><use xlink:href="#a" x="220.667" y="114.646"/><use xlink:href="#g" x="225.3" y="116.14"/><use xlink:href="#f" x="228.617" y="114.646"/><g clip-path="url(#p)"><path d="M419.32 68.84c0-18.785-15.226-34.016-34.015-34.016-18.785 0-34.016 15.23-34.016 34.016 0 18.789 15.23 34.02 34.016 34.02 18.789 0 34.015-15.231 34.015-34.02zm0 0" fill="none" stroke-width=".797" stroke="#000" stroke-dasharray="2.29143,1.99255" stroke-miterlimit="10"/></g><g clip-path="url(#q)"><path d="M356.96 80.074l.638-.12.636-.243.637-.434.637-.738.637-1.164.636-1.707.637-2.324.637-2.91.636-3.329.637-3.437.637-3.121.633-2.34.636-1.16.637.187.637 1.532.637 2.582.636 3.199.637 3.36.637 3.073.636 2.485.637 1.707.637.887.637.093.636-.605.637-1.188.637-1.597.636-1.82.637-1.81.637-1.57.637-1.097.636-.461.637.246.637.902.636 1.446.637 1.793.637 1.906.637 1.84.636 1.601.637 1.262.637.867.636.438.637-.02.637-.539.637-1.121.636-1.79.637-2.507.637-3.23.637-3.844.636-4.207.637-4.176.637-3.715.636-2.742.637-1.445.637.12.637 1.634.636 2.925.637 3.778.637 4.156.636 4.066.637 3.555.637 2.781.637 1.84.636.848.637-.113.637-.961.636-1.633.637-2.035.637-2.086.637-1.801.636-1.176.637-.328.637.606.637 1.414.636 2.011.637 2.297.637 2.278.636 2.03.637 1.66.637 1.24.637.859.636.55.637.329.637.187.636.094.637.047.637.023 1.273.016h.637" fill="none" stroke-width="1.196" stroke="#009" stroke-miterlimit="10"/></g><path d="M356.96 80.18h55.985" fill="none" stroke-width=".797" stroke="#000" stroke-miterlimit="10"/><path d="M411.39 78.11c.13.777 1.555 1.94 1.942 2.07-.387.129-1.812 1.297-1.941 2.074" fill="none" stroke-width=".638" stroke-linecap="round" stroke-linejoin="round" stroke="#000" stroke-miterlimit="10"/><path d="M385.305 94.352V45.453" fill="none" stroke-width=".797" stroke="#000" stroke-miterlimit="10"/><path d="M383.234 47.008c.778-.13 1.942-1.555 2.07-1.942.13.387 1.298 1.813 2.075 1.942" fill="none" stroke-width=".638" stroke-linecap="round" stroke-linejoin="round" stroke="#000" stroke-miterlimit="10"/><use xlink:href="#a" x="358.638" y="114.646"/><use xlink:href="#k" x="363.271" y="116.14"/><use xlink:href="#n" x="370.94" y="114.646"/><use xlink:href="#o" x="381.456" y="114.646"/><use xlink:href="#k" x="386.469" y="116.14"/><use xlink:href="#e" x="391.37" y="114.646"/><use xlink:href="#a" x="395.245" y="114.646"/><g><use xlink:href="#k" x="399.878" y="116.14"/></g><g><use xlink:href="#f" x="404.78" y="114.646"/></g></svg>